<svg xmlns="http://www.w3.org/2000/svg" xmlns:xlink="http://www.w3.org/1999/xlink" width="39.815" height="40.823" viewBox="0 0 39.815 40.823">
  <defs>
    <path id="path-1" fill-rule="evenodd" d="M17.64679842 9.64317754c1.49032295-.31114684 3.02919098-.31189586 4.51981878-.00219996.20115407 1.32199978.99619039 2.4807837 2.15992317 3.14813825 1.16281614.66966476 2.56874047.77534546 3.81936287.28709437 1.01453781 1.1308445 1.78303594 2.45849362 2.25714734 3.89942351-1.04888276.83465481-1.6588654 2.09947814-1.65723006 3.4363326 0 1.39037272.64742454 2.6300484 1.6594397 3.4363326-.47691597 1.43973729-1.2463672 2.76633499-2.2604618 3.89722355-1.2503017-.48789565-2.65573458-.38222132-3.81825805.28709436-1.16275937.66713652-1.95728261 1.8249556-2.15881835 3.1459383-1.49017051.31187242-3.02903857.31337046-4.51981878.0043999-.20020765-1.32321521-.99536315-2.48338769-2.15992317-3.15143817-1.1629886-.66930353-2.56890654-.77457885-3.81936287-.2859944-1.01466903-1.13116765-1.78317413-2.45920334-2.25714734-3.90052348 1.04827664-.83417355 1.65819282-2.09804941 1.65723006-3.43413264.0010989-1.33722589-.60972905-2.60211547-1.6594397-3.4363326.47691597-1.4397373 1.2463672-2.766335 2.2604618-3.89722355 1.2503017.48789564 2.65573458.3822213 3.81825805-.28709437 1.16275937-.66713652 1.9572826-1.8249556 2.15881835-3.1459383v-.00109997z"/>
    <mask id="mask-2" x="0" y="0" maskContentUnits="userSpaceOnUse" maskUnits="userSpaceOnUse">
      <rect width="39.815" height="40.823" x="0" y="0" fill="white"/>
      <use fill="black" xlink:href="#path-1"/>
    </mask>
  </defs>
  <use fill-opacity="0" stroke="rgb(97,133,193)" stroke-linecap="butt" stroke-linejoin="miter" stroke-width="4" mask="url(#mask-2)" xlink:href="#path-1"/>
</svg>
